<svg width="28" height="28" viewBox="0 0 28 28" fill="none" xmlns="http://www.w3.org/2000/svg">
<g clip-path="url(#clip0_38_25)">
<path fill-rule="evenodd" clip-rule="evenodd" d="M24.0625 0H3.9375C2.00462 0 0.4375 1.56712 0.4375 3.5V15.75H27.5625V3.5C27.5625 1.56712 25.9954 0 24.0625 0ZM0.4375 19.25C0.4375 21.1829 2.00462 22.75 3.9375 22.75H24.0625C25.9954 22.75 27.5625 21.1829 27.5625 19.25V17.5H0.4375V19.25ZM19.6875 26.25H17.9375V24.5H10.9375V26.25H9.1875C8.70362 26.25 8.3125 26.642 8.3125 27.125C8.3125 27.6089 8.70362 28 9.1875 28H19.6875C20.1714 28 20.5625 27.6089 20.5625 27.125C20.5625 26.642 20.1714 26.25 19.6875 26.25Z" fill="#EEEEEE"/>
</g>
<defs>
<clipPath id="clip0_38_25">
<rect width="28" height="28" fill="white"/>
</clipPath>
</defs>
</svg>
